<?xml version="1.0" encoding="UTF-8"?>
<!DOCTYPE svg PUBLIC "-//W3C//DTD SVG 1.1//EN" "http://www.w3.org/Graphics/SVG/1.1/DTD/svg11.dtd">
<!-- Creator: CorelDRAW -->
<svg xmlns="http://www.w3.org/2000/svg" xml:space="preserve" width="512px" height="512px" version="1.1" style="shape-rendering:geometricPrecision; text-rendering:geometricPrecision; image-rendering:optimizeQuality; fill-rule:evenodd; clip-rule:evenodd"
viewBox="0 0 512 512"
 xmlns:xlink="http://www.w3.org/1999/xlink">
 <defs>
  <style type="text/css">
   <![CDATA[
    .fil0 {fill:black}
   ]]>
  </style>
 </defs>
 <g id="Layer_x0020_1">
  <metadata id="CorelCorpID_0Corel-Layer"/>
  <path class="fil0" d="M435 345c-4,0 -7,-3 -7,-7l0 -94c0,-10 15,-10 15,0 0,14 0,31 0,48 0,16 0,32 0,46 -1,4 -4,7 -8,7zm-412 -146c0,-5 3,-8 8,-8l41 0c9,0 7,10 7,15l54 0 0 -29c0,-20 16,-36 36,-36l39 0 0 -61c-4,-3 -8,-7 -11,-11l-85 0c-14,0 -26,-11 -26,-25 0,-14 12,-26 26,-26l85 0c17,-24 54,-24 71,0l85 0c14,0 26,12 26,26 0,14 -12,25 -26,25l-85 0c-3,4 -7,8 -11,11l0 61 39 0c20,0 36,16 36,36l0 18 88 0c27,0 49,22 49,49l0 115 5 0c8,0 15,7 15,15l0 25c0,8 -6,15 -15,15l-108 0c-8,0 -15,-7 -15,-15l0 -25c0,-8 7,-15 15,-15l5 0 0 -65 -39 0 0 10c0,20 -16,36 -36,36l-127 0c-20,0 -36,-16 -36,-36l0 -29 -54 0c0,5 2,15 -7,15l-41 0c-5,0 -8,-3 -8,-7l0 -84zm110 22l-54 0 0 40 54 0 0 -40zm90 -80l19 0 0 -55c-6,2 -13,2 -19,0l0 55zm197 69l-88 0 0 69 46 0c4,0 8,3 8,7l0 73 68 0 0 -114c0,-19 -16,-35 -34,-35zm-103 -33c0,-11 -9,-21 -21,-21 -43,0 -85,0 -127,0 0,0 -22,2 -22,22 0,42 0,84 0,126 0,12 10,22 22,22l127 0c11,0 21,-10 21,-22l0 -127zm49 196l0 26c36,0 72,0 108,0l0 -25c0,0 0,-1 0,-1l-108 0zm-301 -167l-27 0 0 70 27 0 0 -70zm167 -191c-30,0 -40,40 -13,54 44,21 61,-54 13,-54zm-42 18l-78 0c-14,0 -15,22 0,22l78 0c-2,-7 -2,-15 0,-22zm85 22l78 0c14,0 15,-22 0,-22l-78 0c2,7 2,14 0,22zm146 457c-5,0 -8,-3 -8,-8l0 -69c0,-10 15,-10 15,0l0 69c0,5 -3,8 -7,8zm58 -17c-3,0 -5,-1 -6,-3l-25 -44c-5,-8 7,-15 12,-7l25 43c3,5 -1,11 -6,11zm-117 0c-6,0 -9,-6 -6,-11l25 -43c4,-8 17,-1 12,7l-25 44c-1,2 -4,3 -6,3zm-66 -286c-4,0 -7,-3 -7,-7l0 -18 -47 0c-10,0 -10,-15 0,-15l52 0c5,0 9,5 9,10l0 23c0,4 -3,7 -7,7z"/>
 </g>
</svg>
