<?xml version="1.0" encoding="UTF-8"?>
<!DOCTYPE svg PUBLIC "-//W3C//DTD SVG 1.1//EN" "http://www.w3.org/Graphics/SVG/1.1/DTD/svg11.dtd">
<!-- Creator: CorelDRAW -->
<svg xmlns="http://www.w3.org/2000/svg" xml:space="preserve" width="1.70666in" height="1.70666in" version="1.1" style="shape-rendering:geometricPrecision; text-rendering:geometricPrecision; image-rendering:optimizeQuality; fill-rule:evenodd; clip-rule:evenodd"
viewBox="0 0 1707 1707"
 xmlns:xlink="http://www.w3.org/1999/xlink">
 <defs>
  <style type="text/css">
   <![CDATA[
    .fil0 {fill:black}
   ]]>
  </style>
 </defs>
 <g id="Layer_x0020_1">
  <metadata id="CorelCorpID_0Corel-Layer"/>
  <g id="_336277368">
   <g>
    <g>
     <path class="fil0" d="M1253 1620l-799 0c-115,0 -210,-95 -210,-210l0 -1201c0,-115 95,-210 210,-210l799 0c115,0 209,95 209,210l0 1200c0,116 -94,211 -209,211zm-799 -1572c-89,0 -162,72 -162,161l0 1200c0,89 72,161 161,161l798 0c89,0 161,-72 161,-161l0 -1200c0,-89 -72,-161 -161,-161l-797 0z"/>
    </g>
    <g>
     <path class="fil0" d="M860 834c-199,0 -361,-163 -361,-363l0 -447c0,-14 11,-25 25,-25 13,0 25,11 25,25l0 447c0,174 140,314 312,314 174,0 314,-140 314,-314l0 -447c0,-14 11,-25 25,-25 14,0 22,11 22,25l0 447c0,200 -162,363 -362,363z"/>
    </g>
    <g>
     <path class="fil0" d="M860 696c-141,0 -256,-113 -256,-255 0,-142 114,-256 256,-256 141,0 255,114 255,256 0,142 -115,255 -255,255zm0 -462c-114,0 -207,93 -207,207 0,114 93,207 207,207 113,0 206,-93 206,-207 0,-114 -93,-207 -206,-207z"/>
    </g>
    <g>
     <path class="fil0" d="M996 1202l-295 0c-47,0 -86,-39 -86,-86l0 -78c0,-47 39,-86 86,-86l295 0c47,0 86,39 86,86l0 78c0,47 -39,86 -86,86zm-295 -203c-21,0 -37,17 -37,38l0 77c0,21 16,38 37,38l295 0c21,0 37,-17 37,-38l0 -77c0,-21 -17,-38 -37,-38l-295 0z"/>
    </g>
    <g>
     <path class="fil0" d="M424 1313c-14,0 -25,-11 -25,-25l0 -375c0,-14 11,-25 25,-25 13,0 25,11 25,25l0 375c0,14 -12,25 -25,25zm0 -480c-14,0 -25,-12 -25,-25l0 -52c0,-14 11,-25 25,-25 13,0 25,11 25,25l0 52c0,13 -12,25 -25,25z"/>
    </g>
    <g>
     <g>
      <path class="fil0" d="M586 1313l-19 0c-14,0 -25,-11 -25,-25 0,-14 11,-25 25,-25l19 0c14,0 25,11 25,25 0,14 -12,25 -25,25z"/>
     </g>
     <g>
      <path class="fil0" d="M586 1462l-19 0c-14,0 -25,-12 -25,-25 0,-14 11,-25 25,-25l19 0c14,0 25,11 25,25 0,13 -12,25 -25,25z"/>
     </g>
     <g>
      <path class="fil0" d="M1130 1313l-19 0c-14,0 -25,-11 -25,-25 0,-14 12,-24 25,-24l19 0c14,0 25,11 25,25 0,14 -11,24 -25,24z"/>
     </g>
     <g>
      <path class="fil0" d="M1130 1462l-19 0c-14,0 -25,-12 -25,-25 0,-14 11,-25 25,-25l19 0c14,0 25,11 25,25 0,13 -11,25 -25,25z"/>
     </g>
    </g>
    <g>
     <path class="fil0" d="M860 605c-67,0 -121,-54 -121,-121 0,-29 21,-60 44,-96 20,-29 40,-61 53,-94 4,-10 12,-17 22,-17l0 0c10,0 20,7 22,17 13,34 35,66 55,94 23,35 44,65 44,96 1,67 -53,121 -119,121zm0 -246c-12,21 -24,39 -37,57 -18,26 -36,54 -36,68 0,40 32,72 73,72 40,0 72,-32 72,-72 0,-14 -18,-42 -36,-68 -11,-18 -25,-38 -36,-57z"/>
    </g>
    <g>
     <g>
      <path class="fil0" d="M582 1707l-39 0c-38,0 -68,-30 -68,-68l0 -44c0,-14 11,-25 25,-25 14,0 25,11 25,25l0 44c0,11 10,20 19,20l39 0c11,0 20,-10 20,-20l0 -44c0,-14 11,-25 25,-25 14,0 25,11 25,25l0 44c-3,38 -34,68 -71,68z"/>
     </g>
     <g>
      <path class="fil0" d="M1162 1707l-37 0c-39,0 -70,-30 -70,-68l0 -44c0,-14 11,-25 25,-25 14,0 25,11 25,25l0 44c0,11 10,20 21,20l38 0c11,0 21,-9 21,-20l0 -44c0,-14 11,-25 25,-25 13,0 25,11 25,25l0 44c-3,38 -34,68 -73,68z"/>
     </g>
    </g>
   </g>
  </g>
 </g>
</svg>
