<?xml version="1.0" encoding="UTF-8"?>
<!DOCTYPE svg PUBLIC "-//W3C//DTD SVG 1.1//EN" "http://www.w3.org/Graphics/SVG/1.1/DTD/svg11.dtd">
<!-- Creator: CorelDRAW -->
<svg xmlns="http://www.w3.org/2000/svg" xml:space="preserve" width="512px" height="512px" version="1.1" style="shape-rendering:geometricPrecision; text-rendering:geometricPrecision; image-rendering:optimizeQuality; fill-rule:evenodd; clip-rule:evenodd"
viewBox="0 0 512 512"
 xmlns:xlink="http://www.w3.org/1999/xlink">
 <defs>
  <style type="text/css">
   <![CDATA[
    .fil0 {fill:black}
   ]]>
  </style>
 </defs>
 <g id="Layer_x0020_1">
  <metadata id="CorelCorpID_0Corel-Layer"/>
  <g id="_534993216">
   <g>
    <g>
     <path class="fil0" d="M472 330l-39 0c-4,0 -7,-3 -7,-7 0,-4 3,-7 7,-7l32 0 0 -66 -32 0c-4,0 -7,-3 -7,-7 0,-4 3,-7 7,-7l39 0c4,0 7,3 7,7l0 80c0,4 -3,7 -7,7zm-85 0l-141 0c-2,0 -4,-1 -5,-2l-31 -34 -32 34c-1,1 -3,2 -5,2l-48 0c-4,0 -7,-3 -7,-7 0,-4 3,-7 7,-7l45 0 35 -37c1,-1 3,-2 5,-2 2,0 4,1 5,2l34 37 138 0c4,0 7,3 7,7 0,4 -3,7 -7,7zm-308 0l-39 0c-4,0 -7,-3 -7,-7l0 -80c0,-4 3,-7 7,-7l39 0c4,0 7,3 7,7 0,4 -3,7 -7,7l-32 0 0 66 32 0c4,0 7,3 7,7 0,4 -3,7 -7,7zm308 -80l-262 0c-4,0 -7,-3 -7,-7 0,-4 3,-7 7,-7l262 0c4,0 7,3 7,7 0,4 -3,7 -7,7z"/>
    </g>
    <g>
     <path class="fil0" d="M272 99c-4,0 -7,-3 -7,-7l0 -50c0,-4 3,-7 7,-7 4,0 7,3 7,7l0 50c0,4 -3,7 -7,7zm-32 0c-4,0 -7,-3 -7,-7l0 -50c0,-4 3,-7 7,-7 4,0 7,3 7,7l0 50c0,4 -3,7 -7,7z"/>
    </g>
    <g>
     <path class="fil0" d="M297 250c-4,0 -7,-3 -7,-7l0 -111c0,-4 3,-7 7,-7 4,0 7,3 7,7l0 111c0,4 -3,7 -7,7zm-82 0c-4,0 -7,-3 -7,-7l0 -111c0,-4 3,-7 7,-7 4,0 7,3 7,7l0 111c0,4 -3,7 -7,7z"/>
    </g>
    <g>
     <path class="fil0" d="M316 139l-120 0c-4,0 -7,-3 -7,-7l0 -40c0,-4 3,-7 7,-7l120 0c4,0 7,3 7,7l0 40c0,4 -3,7 -7,7zm-113 -14l106 0 0 -26 -106 0 0 26z"/>
    </g>
    <g>
     <path class="fil0" d="M325 52c-4,0 -8,-1 -12,-3l-114 0c-4,2 -8,3 -12,3 -15,0 -26,-11 -26,-26 0,-14 12,-26 26,-26 7,0 12,2 15,5l108 0c3,-3 8,-5 15,-5 14,0 26,12 26,26 0,15 -11,26 -26,26zm-128 -17l118 0c1,0 3,0 4,1 2,1 4,2 6,2 7,0 12,-5 12,-12 0,-6 -5,-12 -12,-12 -3,0 -5,1 -9,4 -1,1 -3,1 -4,1l-112 0c-1,0 -3,0 -4,-1 -4,-3 -6,-4 -9,-4 -7,0 -12,6 -12,12 0,7 5,12 12,12 2,0 4,-1 6,-2 1,-1 3,-1 4,-1z"/>
    </g>
    <g>
     <path class="fil0" d="M125 346l-46 0c-4,0 -7,-3 -7,-7l0 -112c0,-4 3,-7 7,-7l46 0c4,0 7,3 7,7l0 112c0,4 -3,7 -7,7zm-39 -14l32 0 0 -98 -32 0 0 98z"/>
    </g>
    <g>
     <path class="fil0" d="M433 346l-46 0c-4,0 -7,-3 -7,-7l0 -112c0,-4 3,-7 7,-7l46 0c4,0 7,3 7,7l0 112c0,4 -3,7 -7,7zm-39 -14l32 0 0 -98 -32 0 0 98z"/>
    </g>
    <g>
     <path class="fil0" d="M210 455c-20,0 -35,-15 -35,-35 0,-10 11,-29 28,-55l1 -3c1,-2 4,-3 6,-3 3,0 5,1 6,4 2,2 4,6 7,11 12,20 22,36 22,46 0,19 -16,35 -35,35zm0 -76c-14,22 -21,36 -21,41 0,12 9,21 21,21 12,0 21,-9 21,-21 0,-6 -13,-28 -20,-39 0,0 -1,-1 -1,-2z"/>
    </g>
    <g>
     <path class="fil0" d="M152 512c-14,0 -26,-12 -26,-26 0,-8 7,-20 18,-38 1,-1 2,-2 2,-3 1,-2 4,-3 6,-3 3,0 5,1 6,4 1,2 4,5 6,9 8,14 14,24 14,31 0,14 -12,26 -26,26zm0 -50c-8,13 -12,21 -12,24 0,6 5,12 12,12 6,0 12,-6 12,-12 0,-4 -8,-17 -12,-23 0,0 0,0 0,-1z"/>
    </g>
    <g>
     <path class="fil0" d="M268 512c-14,0 -26,-12 -26,-26 0,-8 7,-20 18,-38 1,-1 2,-2 2,-3 1,-2 4,-3 6,-3 3,0 5,1 6,4 1,2 4,5 6,9 8,14 14,24 14,31 0,14 -12,26 -26,26zm0 -50c-8,13 -12,21 -12,24 0,6 5,12 12,12 6,0 12,-6 12,-12 0,-4 -8,-17 -12,-23 0,0 0,0 0,-1z"/>
    </g>
   </g>
  </g>
 </g>
</svg>
