<?xml version="1.0" encoding="UTF-8" standalone="no"?> <svg xmlns="http://www.w3.org/2000/svg" viewBox="0 0 48 48"><g id="Water_Closet" data-name="Water Closet"><path d="M41.657,20.078,41,18.764A4.973,4.973,0,0,0,36.528,16H24.472A4.973,4.973,0,0,0,20,18.764V5a3,3,0,0,0-3-3H9A3,3,0,0,0,6,5V20.184A3,3,0,0,0,4,23v1a3,3,0,0,0,2,2.816V28.1a9.316,9.316,0,0,0,3.36,7.174A7.352,7.352,0,0,1,10.871,37H10a2,2,0,0,0-2,2v2a2,2,0,0,0,2,2h2v1a2,2,0,0,0,2,2H26.053a1.975,1.975,0,0,0,1.984-1.784,8.334,8.334,0,0,1,5.969-7.178l.538-.153A10.324,10.324,0,0,0,42,27v-.184A3,3,0,0,0,44,24V23A3,3,0,0,0,41.657,20.078ZM24.472,18H36.528a2.985,2.985,0,0,1,2.683,1.658l.171.342H21.618l.171-.342A2.985,2.985,0,0,1,24.472,18ZM8,8h6v3a1,1,0,0,0,2,0V8h2V20H8ZM8,5A1,1,0,0,1,9,4h8a1,1,0,0,1,1,1V6H8Zm2,36V39h1.739A7.345,7.345,0,0,1,12,40.905V41Zm23.994-6.038-.538.153A10.328,10.328,0,0,0,26.053,44H14V40.905a9.316,9.316,0,0,0-3.36-7.174A7.314,7.314,0,0,1,8,28.1V27H40A8.315,8.315,0,0,1,33.994,34.962ZM42,24a1,1,0,0,1-1,1H7a1,1,0,0,1-1-1V23a1,1,0,0,1,1-1H41a1,1,0,0,1,1,1Z"/><path d="M15,13a1,1,0,0,0-1,1v1a1,1,0,0,0,2,0V14A1,1,0,0,0,15,13Z"/></g></svg>