<?xml version="1.0" encoding="utf-8"?>
<!-- Generator: Adobe Illustrator 25.4.1, SVG Export Plug-In . SVG Version: 6.00 Build 0)  -->
<svg version="1.1" id="Layer_1" xmlns="http://www.w3.org/2000/svg" xmlns:xlink="http://www.w3.org/1999/xlink" x="0px" y="0px"
	 viewBox="0 0 100 100" style="enable-background:new 0 0 100 100;" xml:space="preserve">
<path d="M59.9,95.95h17c0.83,0,1.5-0.67,1.5-1.5v-7.49h7.27c0.83,0,1.5-0.67,1.5-1.5V5.55c0-0.83-0.67-1.5-1.5-1.5H14.33
	c-0.83,0-1.5,0.67-1.5,1.5v79.91c0,0.83,0.67,1.5,1.5,1.5h7.28v7.49c0,0.83,0.67,1.5,1.5,1.5h16.98c0.83,0,1.5-0.67,1.5-1.5v-7.49
	h16.8v7.49C58.4,95.28,59.07,95.95,59.9,95.95z M75.4,92.95h-14v-5.99h14V92.95z M84.17,7.05v17H15.83v-17H84.17z M15.83,27.04
	h68.34v56.92h-7.25c-0.01,0-0.02,0-0.02,0s-0.02,0-0.02,0H59.92c-0.01,0-0.02,0-0.02,0s-0.02,0-0.02,0H40.12c-0.01,0-0.02,0-0.02,0
	s-0.02,0-0.02,0H23.14c-0.01,0-0.02,0-0.02,0s-0.02,0-0.02,0h-7.26V27.04z M38.59,92.95H24.61v-5.99h13.98V92.95z"/>
<path d="M49.54,80.08c14.25,0,25.84-11.59,25.84-25.84S63.79,28.4,49.54,28.4S23.69,39.99,23.69,54.24S35.29,80.08,49.54,80.08z
	 M49.54,31.4c12.6,0,22.84,10.25,22.84,22.84S62.13,77.08,49.54,77.08S26.69,66.83,26.69,54.24S36.94,31.4,49.54,31.4z"/>
<path d="M49.54,72.07c9.83,0,17.83-8,17.83-17.83s-8-17.83-17.83-17.83s-17.83,8-17.83,17.83S39.7,72.07,49.54,72.07z M49.54,39.41
	c8.18,0,14.83,6.65,14.83,14.83s-6.65,14.83-14.83,14.83S34.7,62.42,34.7,54.24S41.36,39.41,49.54,39.41z"/>
<path d="M24.75,21.75h13.94c3.17,0,5.75-2.58,5.75-5.75s-2.58-5.75-5.75-5.75H24.75C21.58,10.25,19,12.83,19,16
	S21.58,21.75,24.75,21.75z M24.75,13.25h13.94c1.52,0,2.75,1.23,2.75,2.75s-1.23,2.75-2.75,2.75H24.75C23.23,18.75,22,17.52,22,16
	S23.23,13.25,24.75,13.25z"/>
<path d="M59.18,21.68c3.13,0,5.68-2.55,5.68-5.68s-2.55-5.68-5.68-5.68S53.5,12.87,53.5,16S56.05,21.68,59.18,21.68z M59.18,13.32
	c1.48,0,2.68,1.2,2.68,2.68s-1.2,2.68-2.68,2.68S56.5,17.48,56.5,16S57.71,13.32,59.18,13.32z"/>
<path d="M75.33,21.68c3.13,0,5.68-2.55,5.68-5.68s-2.55-5.68-5.68-5.68s-5.68,2.55-5.68,5.68S72.2,21.68,75.33,21.68z M75.33,13.32
	c1.48,0,2.68,1.2,2.68,2.68s-1.2,2.68-2.68,2.68s-2.68-1.2-2.68-2.68S73.85,13.32,75.33,13.32z"/>
<path d="M49.86,61.79c-0.83,0.02-1.48,0.71-1.46,1.54c0.02,0.82,0.69,1.46,1.5,1.46c0.01,0,0.02,0,0.04,0
	c5.68-0.14,10.29-4.87,10.29-10.55c0-0.35-0.02-0.69-0.05-1.03c-0.08-0.82-0.81-1.43-1.64-1.35c-0.82,0.08-1.43,0.81-1.35,1.64
	c0.02,0.24,0.04,0.49,0.04,0.73C57.23,58.3,53.92,61.69,49.86,61.79z"/>
<path d="M40.64,56.18c0.02,0,0.05,0,0.07,0c0.83-0.04,1.47-0.74,1.43-1.57c-0.01-0.13-0.01-0.25-0.01-0.37c0-3.94,3.07-7.25,7-7.53
	c0.83-0.06,1.45-0.78,1.39-1.6c-0.06-0.83-0.77-1.44-1.6-1.39c-5.49,0.4-9.78,5.02-9.78,10.53c0,0.17,0.01,0.33,0.01,0.5
	C39.18,55.55,39.84,56.18,40.64,56.18z"/>
</svg>
